<svg xmlns="http://www.w3.org/2000/svg" xmlns:xlink="http://www.w3.org/1999/xlink"><symbol id="icon-arrow-left" viewBox="0 0 512 512"><path fill="none" d="M244 244h24v24h-24v-24z"/><path d="M384.3 224H0v64h384.3v96L512 256 384.3 128v96z"/></symbol><symbol id="icon-arrow-slider" viewBox="0 0 512 512"><path fill="none" d="M244 244h24v24h-24v-24z"/><path d="M256 0l-45.1 45.1L389.4 224H0v64h389.4L210.9 466.9 256 512l256-256L256 0z"/></symbol><symbol id="icon-arrow" viewBox="0 0 512 512"><path d="M256 402.29c-9.36 0-18.71-3.57-25.86-10.71L10.71 172.14c-14.29-14.29-14.29-37.43 0-51.71s37.43-14.29 51.71 0L256 314l193.57-193.57c14.29-14.29 37.43-14.29 51.71 0s14.29 37.43 0 51.71L281.86 391.57A36.485 36.485 0 01256 402.29z"/></symbol><symbol id="icon-calendar" viewBox="0 0 512 512"><path d="M111.17 248.98h168.85c6.02 0 10.89-4.88 10.89-10.89 0-6.02-4.88-10.89-10.89-10.89H111.17c-6.02 0-10.89 4.88-10.89 10.89-.01 6.02 4.87 10.89 10.89 10.89zM212.25 298H111.17c-6.02 0-10.89 4.88-10.89 10.89s4.87 10.89 10.89 10.89h101.09c6.02 0 10.89-4.88 10.89-10.89S218.27 298 212.25 298z"/><path d="M401.36 273.82V85.58c-.01-30.08-24.39-54.46-54.47-54.47h-44.66v-20.8c0-6.02-4.87-10.89-10.89-10.89-6.02 0-10.89 4.87-10.89 10.89v20.81H132.3V10.31c0-6.02-4.87-10.89-10.89-10.89-6.02 0-10.89 4.87-10.89 10.89v20.81H65.85c-30.08.01-54.46 24.38-54.47 54.46v295.1c.01 30.08 24.39 54.45 54.47 54.47h201.64c20.96 53.68 77.17 84.85 133.8 74.18 56.64-10.66 97.67-60.12 97.68-117.76.11-58.49-42.05-107.29-97.61-117.75zM65.96 52.9h44.66v20.81c0 6.02 4.87 10.89 10.89 10.89 6.02 0 10.89-4.88 10.89-10.89V52.9h148.15v20.81c0 6.02 4.87 10.89 10.89 10.89 6.02 0 10.89-4.88 10.89-10.89V52.9h44.66c18.03.05 32.63 14.65 32.68 32.68v26.36H33.28V85.58c.01-18.04 14.64-32.66 32.68-32.68zm0 360.47c-18.03-.05-32.63-14.65-32.68-32.68V133.62h346.3v138.13h-.33c-35.58.05-69.3 15.89-92.06 43.24a120.035 120.035 0 00-25.81 98.38H65.96zm313.29 76.25c-54.14 0-98.04-43.89-98.04-98.04s43.9-98.04 98.04-98.04c54.15 0 98.04 43.89 98.04 98.04-.08 54.11-43.93 97.96-98.04 98.04z"/><path d="M429.69 352.47l-64.7 61.77-33.45-33.55c-4.24-4.24-11.11-4.24-15.36 0s-4.25 11.12 0 15.36l41.06 41.07c2.04 2.06 4.83 3.2 7.74 3.16 2.81.02 5.51-1.07 7.51-3.05l72.33-69.17c2.08-1.99 3.29-4.73 3.35-7.61.06-2.88-1.03-5.67-3.03-7.75-4.23-4.27-11.09-4.36-15.45-.23z"/></symbol><symbol id="icon-career" viewBox="0 0 512 512"><path d="M409.6 25.6H512v460.8H409.6zm-204.8 128h102.4v332.8H204.8zM0 281.6h102.4v204.8H0z"/></symbol><symbol id="icon-check" viewBox="0 0 512 512"><path d="M170.67 440.89c-7.28 0-14.56-2.78-20.11-8.33L8.33 290.33c-11.11-11.11-11.11-29.11 0-40.22s29.11-11.11 40.22 0l122.11 122.11L463.44 79.44c11.11-11.11 29.11-11.11 40.22 0s11.11 29.11 0 40.22l-312.88 312.9a28.39 28.39 0 01-20.11 8.33z"/></symbol><symbol id="icon-close" viewBox="0 0 512 512"><path d="M512 51.6L460.4 0 256 204.4 51.6 0 0 51.6 204.4 256 0 460.4 51.6 512 256 307.6 460.4 512l51.6-51.6L307.6 256 512 51.6z"/></symbol><symbol id="icon-copy" viewBox="0 0 512 512"><path fill-rule="evenodd" clip-rule="evenodd" d="M37.6 291.6H1v-256C1 15.4 17.4-1 37.6-1h256v36.6h-256v256zm438.8-182.9H147.3c-20.2 0-36.6 16.4-36.6 36.6v329.1c0 20.2 16.4 36.6 36.6 36.6h329.1c20.2 0 36.6-16.4 36.6-36.6V145.3c0-20.2-16.4-36.6-36.6-36.6zm0 36.6v329.1H147.3V145.3h329.1z"/></symbol><symbol id="icon-dashboard" viewBox="0 0 512 512"><path d="M204.8 230.4H25.6C11.46 230.4 0 218.94 0 204.8V25.6C0 11.46 11.46 0 25.6 0h179.2c14.14 0 25.6 11.46 25.6 25.6v179.2c0 14.14-11.46 25.6-25.6 25.6zM51.2 179.2h128v-128h-128v128zm435.2 51.2H307.2c-14.15 0-25.6-11.46-25.6-25.6V25.6c0-14.14 11.45-25.6 25.6-25.6h179.2C500.55 0 512 11.46 512 25.6v179.2c0 14.14-11.45 25.6-25.6 25.6zm-153.6-51.2h128v-128h-128v128zM486.4 512H307.2c-14.15 0-25.6-11.45-25.6-25.6V307.2c0-14.15 11.45-25.6 25.6-25.6h179.2c14.15 0 25.6 11.45 25.6 25.6v179.2c0 14.15-11.45 25.6-25.6 25.6zm-153.6-51.2h128v-128h-128v128zm-128 51.2H25.6C11.46 512 0 500.55 0 486.4V307.2c0-14.15 11.46-25.6 25.6-25.6h179.2c14.14 0 25.6 11.45 25.6 25.6v179.2c0 14.15-11.46 25.6-25.6 25.6zM51.2 460.8h128v-128h-128v128z"/></symbol><symbol id="icon-diamond" viewBox="0 0 512 512"><path d="M438.9 252.4c-2.6 0-5.1-1-7.1-2.9l-.5-.5c-3.9-3.9-3.9-10.2 0-14.2 3.9-3.9 10.2-3.9 14.2 0l.5.5c3.9 3.9 3.9 10.2 0 14.2-1.9 2-4.5 2.9-7.1 2.9zm18.6 173.4c-5.3 0-10-3.7-11.4-8.9-4-15.4-16.1-27.5-31.4-31.4-5.2-1.4-8.9-6-8.9-11.4 0-5.3 3.7-10 8.9-11.4 15.4-4 27.5-16.1 31.4-31.4 1.4-5.2 6-8.9 11.4-8.9 5.3 0 10 3.7 11.4 8.9 4 15.4 16.1 27.5 31.4 31.4 5.2 1.4 8.9 6 8.9 11.4 0 5.3-3.7 10-8.9 11.4-15.5 4-27.5 16.1-31.4 31.4-1.3 5.3-6 8.9-11.4 8.9zM438.1 374c7.8 5 14.6 11.6 19.5 19.5 5-7.8 11.6-14.6 19.5-19.5-7.8-5-14.6-11.6-19.5-19.5-5.1 7.9-11.7 14.6-19.5 19.5zm57.3 8.1zm-410.7-254c-5.3 0-10-3.7-11.4-8.9-4-15.4-16.1-27.5-31.4-31.4-5.2-1.4-8.9-6-8.9-11.4 0-5.3 3.7-10 8.9-11.4 15.4-4 27.5-16.1 31.4-31.4 1.4-5.2 6-8.9 11.4-8.9 5.3 0 10 3.7 11.4 8.9 4 15.4 16.1 27.5 31.4 31.4 5.2 1.4 8.9 6 8.9 11.4 0 5.3-3.7 10-8.9 11.4-15.4 4-27.5 16.1-31.4 31.4-1.4 5.3-6.1 8.9-11.4 8.9zM65.1 76.3c7.8 5 14.6 11.6 19.5 19.5 5-7.8 11.6-14.6 19.5-19.5-7.8-5-14.6-11.6-19.5-19.5-5 7.9-11.7 14.6-19.5 19.5zm57.3 8.1c.1 0 .1 0 0 0 .1 0 .1 0 0 0z"/><path d="M511.4 150.3c0-.1.1-.1.1-.1v-5.4c-.1-.7-.2-1.4-.4-2.1 0 0 0-.1-.1-.1V141.5s0-.1-.1-.1V140.4s0-.1-.1-.1v-.1s0-.1-.1-.1c-.1-.2-.2-.3-.3-.5l-66.3-94.9c-1.9-2.7-4.9-4.3-8.2-4.3H214.2c-3.3 0-6.3 1.6-8.2 4.3l-66.3 94.9v.2s0 .1-.1.1v.1s0 .1-.1.1c0 0 0 .1-.1.1 0 0 0 .1-.1.1 0 0 0 .1-.1.1 0 0 0 .1-.1.1 0 0 0 .1-.1.1 0 0 0 .1-.1.1 0 0 0 .1-.1.1 0 0 0 .1-.1.1 0 0 0 .1-.1.1v7.6c.1.4.3.7.5 1.1 0 0 0 .1.1.1v.1s0 .1.1.1v.2s0 .1.1.1c0 0 0 .1.1.1 0 0 0 .1.1.1l12.3 18.9C67.3 173.8-.4 243.8-.4 329.3-.4 417 71 488.4 158.7 488.4c63.8 0 119-37.8 144.3-92.2l13.8 20.9c.1.2.2.3.4.5.1.1.2.2.3.4l.1.1c0 .1.1.1.1.2 0 0 0 .1.1.1 0 0 0 .1.1.1l.1.1.1.1.1.1.1.1c.1.1.1.1.2.1.8.7 1.8 1.3 2.8 1.7.1 0 .1.1.2.1h.1c.1 0 .1 0 .2.1h.2c.1 0 .1 0 .2.1.6.2 1.3.3 1.9.4h1.5c.9-.1 1.8-.2 2.6-.5h.1c.1 0 .1 0 .1-.1.1 0 .1 0 .2-.1.1 0 .2-.1.2-.1.6-.3 1.3-.6 1.8-1l.3-.3c.1 0 .1-.1.2-.1s.1-.1.2-.1l.1-.1.1-.1.1-.1.1-.1.1-.1.1-.1.1-.1.1-.1.3-.3c.2-.3.5-.6.7-.9v-.1l90.2-135.3c3.1-4.6 1.8-10.8-2.8-13.9-4.6-3.1-10.8-1.8-13.9 2.8l-52.7 79 58.8-193.7h70.5l-32.6 48.9c-3.1 4.6-1.8 10.8 2.8 13.9 4.6 3.1 10.8 1.8 13.9-2.8l43-64.4.6-.9v-.1c.5-.1.5-.2.5-.2zm-127.2-14.4h-118l59-69.5 59 69.5zm-207.8 35.2l-10-15.2H237l12.6 42.9c-21.2-14.9-46.2-24.7-73.2-27.7zM219.5 61h84l-63.6 74.9h-72.8L219.5 61zm-60.9 407.3c-76.7 0-139-62.3-139-139S82 190.2 158.7 190.2c40.6 0 77.2 17.5 102.7 45.4.2.2.4.5.6.7 22.3 24.7 35.8 57.3 35.8 93 0 76.7-62.5 139-139.2 139zm166.8-91.9l-8.3-28.6c-.1-.2-.1-.4-.2-.7.7-5.9 1-11.9 1-18 0-40.2-15.1-77.1-39.7-105.1L258 155.7h134.5l-67.1 220.7zm85.1-240.5L346.8 61h84l52.3 74.9h-72.6z"/><path d="M158.6 442.6c-62.5 0-113.3-50.9-113.3-113.3S96.2 216 158.6 216 272 266.8 272 329.3s-50.8 113.3-113.4 113.3zm0-206.7c-51.5 0-93.2 41.9-93.2 93.2 0 51.5 41.9 93.2 93.2 93.2s93.2-41.9 93.2-93.2c.2-51.3-41.7-93.2-93.2-93.2z"/><path d="M209.5 375H107.8c-4.9 0-9-3.5-9.8-8.3l-9.7-56.3c-.6-3.4.6-6.8 3.2-9.1s6.1-3.1 9.4-2.2l28.7 8.2c2.3-2.3 5.3-5.4 8.4-8.4 14.4-14.2 16.1-15.5 20.7-15.5s6.4 1.3 20.7 15.5c3.1 3 6.1 6 8.4 8.4l28.7-8.2c3.3-1 6.9-.1 9.4 2.2 2.6 2.3 3.8 5.7 3.2 9.1l-9.7 56.3c-.8 4.8-5 8.3-9.9 8.3zm-93.3-20h84.9l5.6-32.2-19.1 5.5c-3.5 1-7.3 0-9.9-2.6-6.5-6.6-14.1-14.2-19.1-18.9-5 4.8-12.5 12.2-19.1 18.9-2.6 2.6-6.4 3.6-9.9 2.6l-19.1-5.5 5.7 32.2z"/></symbol><symbol id="icon-donation" viewBox="0 0 512 512"><path d="M341.3 273.1c75.3 0 136.5-61.3 136.5-136.5S416.6 0 341.3 0 204.8 61.3 204.8 136.5 266 273.1 341.3 273.1zm0-256c65.9 0 119.5 53.6 119.5 119.5S407.2 256 341.3 256s-119.5-53.6-119.5-119.5S275.4 17.1 341.3 17.1zm166.1 341.3c-9.4-16.3-30.4-21.9-46.1-12.8l-98.2 47.8c-15.3 7.6-30.7 7.6-64.5 7.6-33 0-83.4-8.3-83.9-8.4-4.7-.8-9.1 2.4-9.8 7-.8 4.7 2.4 9.1 7 9.8 2.1.4 52.3 8.7 86.7 8.7 35.4 0 53.2 0 72-9.4l98.7-48.1c3.9-2.3 8.5-2.9 13-1.7 4.4 1.2 8.1 4 10.4 8 2.3 4 2.9 8.6 1.7 13s-4 8.1-8.2 10.5l-115.4 71.8c-.2.2-24.9 15.7-80.7 15.7-48.4 0-123.1-41.2-124.2-41.8-.8-.4-19.3-9.4-55-9.4-4.7 0-8.5 3.8-8.5 8.5s3.8 8.5 8.5 8.5c31 0 47 7.5 47.1 7.5 3.2 1.8 79.3 43.7 132.1 43.7 61.6 0 88.9-17.8 89.8-18.4l115-71.6c7.9-4.6 13.5-11.9 15.9-20.7 2.4-8.7 1.2-17.9-3.4-25.8z"/><path d="M341.3 179.2c-9.4 0-17.1-7.7-17.1-17.1 0-4.7-3.8-8.5-8.5-8.5s-8.5 3.8-8.5 8.5c0 15.9 10.9 29.1 25.6 32.9v1.2c0 4.7 3.8 8.5 8.5 8.5s8.5-3.8 8.5-8.5V195c14.7-3.8 25.6-17.1 25.6-32.9 0-18.8-15.3-34.1-34.1-34.1-9.4 0-17.1-7.7-17.1-17.1 0-9.4 7.7-17.1 17.1-17.1 9.4 0 17.1 7.7 17.1 17.1 0 4.7 3.8 8.5 8.5 8.5s8.5-3.8 8.5-8.5c0-15.9-10.9-29.1-25.6-32.9v-1.2c0-4.7-3.8-8.5-8.5-8.5s-8.5 3.8-8.5 8.5V78c-14.7 3.8-25.6 17.1-25.6 32.9 0 18.8 15.3 34.1 34.1 34.1 9.4 0 17.1 7.7 17.1 17.1 0 9.4-7.7 17.1-17.1 17.1zM59.7 273.1H8.5c-4.7 0-8.5 3.8-8.5 8.5s3.8 8.5 8.5 8.5h51.2c4.7 0 8.5 3.8 8.5 8.5v187.7c0 4.7-3.8 8.5-8.5 8.5H8.5c-4.7 0-8.5 3.8-8.5 8.5s3.8 8.5 8.5 8.5h51.2c14.1 0 25.6-11.5 25.6-25.6V298.7c0-14.1-11.5-25.6-25.6-25.6zm51.2 51.2h68.3c10 0 26.9 12.7 41.8 23.9 18.7 14.1 36.4 27.3 52.1 27.3h51.2c13 0 19.4 5.9 19.6 6 1.7 1.7 3.9 2.5 6 2.5 2.2 0 4.4-.8 6-2.5 3.3-3.3 3.3-8.7 0-12.1-1.1-1.1-11.6-11-31.6-11H273c-10 0-26.9-12.7-41.8-23.9-18.7-14.1-36.4-27.3-52.1-27.3h-68.3c-4.7 0-8.5 3.8-8.5 8.5.1 4.7 3.9 8.6 8.6 8.6z"/><path d="M42.7 456.5c0-7.1-5.7-12.8-12.8-12.8s-12.8 5.7-12.8 12.8 5.7 12.8 12.8 12.8 12.8-5.7 12.8-12.8z"/></symbol><symbol id="icon-history" viewBox="0 0 512 512"><path d="M395.64 512H116.36c-38.5 0-69.82-31.32-69.82-69.82V69.82C46.55 31.32 77.86 0 116.36 0h162.91c6.18 0 12.09 2.45 16.45 6.82l162.91 162.91a23.277 23.277 0 016.82 16.45v256c0 38.5-31.31 69.82-69.81 69.82zM116.36 46.55c-12.83 0-23.27 10.44-23.27 23.27v372.36c0 12.84 10.44 23.27 23.27 23.27h279.27c12.84 0 23.27-10.43 23.27-23.27V195.82L269.64 46.55H116.36z"/><path d="M442.18 209.45H279.27c-12.86 0-23.27-10.42-23.27-23.27V23.27C256 10.42 266.41 0 279.27 0s23.27 10.42 23.27 23.27v139.64h139.64c12.86 0 23.27 10.42 23.27 23.27s-10.4 23.27-23.27 23.27z"/></symbol><symbol id="icon-investment" viewBox="0 0 512 512"><path d="M349.9 34.1h-42.7V8.5c0-4.7-3.8-8.5-8.5-8.5H162.1c-4.7 0-8.5 3.8-8.5 8.5v230.4c0 4.7 3.8 8.5 8.5 8.5h42.7V273c0 4.7 3.8 8.5 8.5 8.5h136.5c4.7 0 8.5-3.8 8.5-8.5V42.7c.1-4.7-3.7-8.6-8.4-8.6zm-59.8-17v15.5c-7.2-2.6-12.9-8.3-15.5-15.5h15.5zm-119.4 0h15.5c-2.6 7.2-8.3 12.9-15.5 15.5V17.1zm0 213.3v-15.5c7.2 2.6 12.9 8.3 15.5 15.5h-15.5zm33.2 0c-3.4-16.7-16.5-29.8-33.3-33.3V50.3c16.7-3.4 29.8-16.5 33.3-33.3h52.9c3.4 16.7 16.5 29.8 33.3 33.3v146.8c-16.7 3.4-29.8 16.5-33.3 33.3h-52.9zm86.2-15.5v15.5h-15.5c2.6-7.2 8.3-12.9 15.5-15.5zm51.2 49.6H221.9v-17.1h76.8c4.7 0 8.5-3.8 8.5-8.5V51.2h34.1v213.3z"/><path d="M230.4 85.3c-18.9 0-34.1 15.3-34.1 34.1s15.3 34.1 34.1 34.1 34.1-15.3 34.1-34.1-15.3-34.1-34.1-34.1zm0 51.2c-9.4 0-17.1-7.6-17.1-17.1s7.6-17.1 17.1-17.1c9.4 0 17.1 7.6 17.1 17.1s-7.7 17.1-17.1 17.1zM119.5 0h17.1v68.3h-17.1zM85.3 0h17.1v34.1H85.3zM375.5 17.1h17.1v68.3h-17.1zM409.6 0h17.1v34.1h-17.1zM500.7 310c-7.3-7.3-17.1-11.3-27.4-11.3H471c-8.5 0-16.8 2.8-23.6 8l-82.8 63.7c-12 9.2-26.1 15.4-41.1 18L214.9 407c-4.9.7-9.4-2.8-10-7.7-.1-.4-.1-.8-.1-1.2 0-4.2 3-7.8 7.1-8.7l83.3-17.9c19.9-4.2 32.6-23.8 28.3-43.7-3.6-17-18.6-29.1-36-29.2h-64.3c-18.6 0-37.1 2.3-55.1 6.8l-65.7 16.4v-14.7c0-4.7-3.8-8.5-8.5-8.5H8.5c-4.7 0-8.5 3.8-8.5 8.5v196.3c0 4.7 3.8 8.5 8.5 8.5h296.9c14.2 0 27.9-5 38.7-14.2l156.5-133.1c15.2-15 15.2-39.5.1-54.6zM85.3 494.9H17.1V315.7h68.3v179.2zm403.8-142.7l-156 132.6c-7.7 6.5-17.5 10.1-27.6 10.1h-203V339.5l69.8-17.5c16.7-4.2 33.8-6.3 51-6.3h64.2c10.9 0 19.8 8.9 19.7 19.8 0 9.3-6.5 17.3-15.6 19.3l-83.3 17.9c-14 3.1-22.9 16.9-19.9 30.9 2.9 13.3 15.6 22.1 29.1 20.2l108.9-18.7c17.7-3 34.4-10.3 48.6-21.3l82.8-63.7c3.8-2.9 8.4-4.5 13.2-4.5h2.2c11.9 0 21.6 9.7 21.6 21.6.2 5.7-1.9 11-5.7 15z"/></symbol><symbol id="icon-like" viewBox="0 0 512 512"><path d="M346 0c-5.5 0-10 4.5-10 10v46c0 5.5 4.5 10 10 10s10-4.5 10-10V10c0-5.5-4.5-10-10-10zM116 312c-5.5 0-10 4.5-10 10s4.5 10 10 10 10-4.5 10-10-4.5-10-10-10z"/><path d="M486 292c0-22.1-17.9-40-40-40h-74.7c11.6-29.6 16.2-64.4 15.3-95.5-.2-5.9-.4-9.3-.7-11.5-.5-21.6-18.3-39-40-39-22.1 0-40 17.9-40 40v10c0 63.2-81.2 98.8-142.5 114-4.6-10.6-15.2-18-27.5-18H36c-5.5 0-10 4.5-10 10v240c0 5.5 4.5 10 10 10h100c12.2 0 22.7-7.3 27.4-17.8 5.1 1.3 9.8 2.5 14.1 3.7 34.9 9.1 54.1 14.1 100.9 14.1H386c22.1 0 40-17.9 40-40 0-8.2-2.5-15.9-6.8-22.2 15.4-5.4 26.8-20.2 26.8-37.8 0-8.2-2.4-15.9-6.7-22.3 15.4-5.4 26.7-20.1 26.7-37.7 0-8.2-2.5-15.9-6.8-22.2 15.5-5.4 26.8-20.2 26.8-37.8zM146 482c0 5.5-4.5 10-10 10H46V272h90c5.5 0 10 4.5 10 10v200zm300-170h-50c-5.5 0-10 4.5-10 10s4.5 10 10 10h30c11 0 20 9 20 20s-9 20-20 20h-50c-5.5 0-10 4.5-10 10s4.5 10 10 10h30c10.9 0 20 8.7 20 20 0 11-9 20-20 20h-50c-5.5 0-10 4.5-10 10s4.5 10 10 10h30c11 0 20 9 20 20s-9 20-20 20H278.5c-44.2 0-61.5-4.5-95.9-13.5-5-1.3-10.6-2.8-16.6-4.3V290c72.4-17.2 160-59.3 160-134v-10c0-11 9-20 20-20s20 9 20 20c0 4.3 5.4 57.7-16.3 106H316c-5.5 0-10 4.5-10 10s4.5 10 10 10h130c11 0 20 9 20 20s-9 20-20 20z"/><path d="M116 352c-5.5 0-10 4.5-10 10v80c0 5.5 4.5 10 10 10s10-4.5 10-10v-80c0-5.5-4.5-10-10-10zM266 126h-40c-5.5 0-10 4.5-10 10s4.5 10 10 10h40c5.5 0 10-4.5 10-10s-4.5-10-10-10zM466 126h-40c-5.5 0-10 4.5-10 10s4.5 10 10 10h40c5.5 0 10-4.5 10-10s-4.5-10-10-10zM437.9 44.1c-3.9-3.9-10.2-3.9-14.1 0l-28.3 28.3c-3.9 3.9-3.9 10.2 0 14.1 3.9 3.9 10.2 3.9 14.1 0l28.3-28.3c3.9-3.9 3.9-10.2 0-14.1zM296.5 72.4l-28.3-28.3c-3.9-3.9-10.2-3.9-14.1 0-3.9 3.9-3.9 10.2 0 14.1l28.3 28.3c3.9 3.9 10.2 3.9 14.1 0 3.9-3.9 3.9-10.2 0-14.1z"/></symbol><symbol id="icon-lock" viewBox="0 0 512 512"><path d="M418.9 512H93.1c-38.5 0-69.8-31.3-69.8-69.8V279.3c0-38.5 31.3-69.8 69.8-69.8h325.8c38.5 0 69.8 31.3 69.8 69.8v162.9c0 38.5-31.3 69.8-69.8 69.8zM93.1 256c-12.8 0-23.3 10.4-23.3 23.3v162.9c0 12.8 10.4 23.3 23.3 23.3h325.8c12.8 0 23.3-10.4 23.3-23.3V279.3c0-12.8-10.4-23.3-23.3-23.3H93.1z"/><path d="M372.4 256c-12.9 0-23.3-10.4-23.3-23.3v-93.1c0-51.3-41.8-93.1-93.1-93.1s-93.1 41.8-93.1 93.1v93.1c0 12.9-10.4 23.3-23.3 23.3s-23.3-10.4-23.3-23.3v-93.1C116.4 62.6 179 0 256 0s139.6 62.6 139.6 139.6v93.1c0 12.9-10.4 23.3-23.2 23.3z"/></symbol><symbol id="icon-manager" viewBox="0 0 512 512"><path d="M306.55 179c5.52 0 10-4.48 10-10s-4.48-10-10-10c-5.53 0-10 4.48-10 10s4.47 10 10 10zm-100 0c5.52 0 10-4.48 10-10s-4.48-10-10-10c-5.53 0-10 4.48-10 10s4.47 10 10 10zm23.27 68.73c8.39 3.96 17.39 5.96 26.73 5.96 9.14 0 17.96-1.93 26.22-5.72 5.02-2.31 7.21-8.25 4.91-13.27-2.31-5.02-8.25-7.21-13.27-4.91-5.62 2.58-11.63 3.89-17.86 3.89-6.37 0-12.5-1.36-18.2-4.05-5-2.36-10.96-.21-13.31 4.78-2.36 5.01-.22 10.97 4.78 13.32z"/><path d="M477.09 404.77c0-54.99-62.63-98.11-116.3-100.16L333.4 280c33.35-24.33 53.6-63.44 53.6-105v-66C387 48.35 337.5-1 276.65-1h-40C175.88-1 127 48.17 127 109v66c0 41.49 19.98 80.53 52.9 104.82l-27.59 24.79C98.74 306.65 36 349.67 36 404.77V501c0 5.52 4.48 10 10 10h421.09c5.52 0 10-4.48 10-10v-96.23zM234.39 445h44.25l10.48 46H223.6l10.79-46zm45.11-20h-45.74l-7.67-23.9 30.46-15.23 31.11 15.56L279.5 425zm-22.95-69.18l-34.75-55.59c11.29 3.14 23.01 4.77 34.85 4.77 11.73 0 23.37-1.6 34.59-4.68l-34.69 55.5zm14.31 14.84l48.01-76.82 25.89 23.27-32.95 74.04-40.95-20.49zM236.65 19h40C326.47 19 367 59.37 367 109v8.27l-18.78-27.04a10.004 10.004 0 00-15.36-1.29C312.53 109.73 289 119 256.55 119c-32.44 0-55.98-9.27-76.32-30.06a10.005 10.005 0 00-8.02-2.97c-2.98.26-5.7 1.85-7.38 4.32L147 116.41V109c0-49.63 40.21-90 89.65-90zM147 175v-23.11l27.77-40.7c22.25 18.93 48.54 27.81 81.78 27.81 33.27 0 59.58-8.91 81.84-27.87l28.61 41.2V175c0 59.89-48.95 110-110.35 110C195.45 285 147 235.04 147 175zm47.22 118.84l48.02 76.82-40.96 20.48-32.95-74.04 25.89-23.26zM56 404.77c0-41.2 50.08-76.77 93.84-80l37.41 84.07c1.11 2.49 3.19 4.43 5.76 5.35s5.4.75 7.85-.47l7.13-3.57 8.11 25.27L203.06 491H56v-86.23zM457.09 491H309.64L297 435.57l8.7-25.12 6.52 3.27c2.46 1.23 5.3 1.38 7.85.47a10.01 10.01 0 005.76-5.35l37.41-84.07c43.76 3.24 93.84 38.8 93.84 80V491z"/><path d="M386.55 445h-40c-5.52 0-10 4.48-10 10s4.48 10 10 10h40c5.52 0 10-4.48 10-10s-4.48-10-10-10zm39.45 0c5.52 0 10 4.48 10 10s-4.48 10-10 10-10-4.48-10-10 4.48-10 10-10z"/></symbol><symbol id="icon-messegaser" viewBox="0 0 512 512"><path d="M442.18 465.45H69.82C31.32 465.45 0 434.14 0 395.64V116.36c0-38.5 31.32-69.82 69.82-69.82h372.36c38.5 0 69.82 31.32 69.82 69.82v279.27c0 38.51-31.32 69.82-69.82 69.82zM69.82 93.09c-12.83 0-23.27 10.44-23.27 23.27v279.27c0 12.84 10.44 23.27 23.27 23.27h372.36c12.84 0 23.27-10.43 23.27-23.27V116.36c0-12.83-10.43-23.27-23.27-23.27H69.82z"/><path d="M256 302.55c-4.67 0-9.34-1.41-13.34-4.2L9.93 135.43C-.6 128.06-3.16 113.54 4.2 103.02c7.39-10.53 21.89-13.09 32.41-5.73L256 250.86 475.38 97.3c10.48-7.36 25.05-4.83 32.41 5.73 7.36 10.52 4.82 25.03-5.73 32.41l-232.72 162.9c-4 2.8-8.68 4.21-13.34 4.21z"/></symbol><symbol id="icon-out" viewBox="0 0 512 512"><path d="M209.45 512H93.09c-38.5 0-69.82-31.32-69.82-69.82V69.82C23.27 31.32 54.59 0 93.09 0h116.36c12.85 0 23.27 10.42 23.27 23.27s-10.42 23.27-23.27 23.27H93.09c-12.83 0-23.27 10.44-23.27 23.27v372.36c0 12.84 10.44 23.27 23.27 23.27h116.36c12.85 0 23.27 10.41 23.27 23.27.01 12.88-10.41 23.29-23.27 23.29zm162.91-139.64c-5.95 0-11.91-2.27-16.45-6.82-9.09-9.09-9.09-23.82 0-32.91L432.55 256l-76.64-76.64c-9.09-9.09-9.09-23.82 0-32.91s23.82-9.09 32.91 0l93.09 93.09c9.09 9.09 9.09 23.82 0 32.91l-93.09 93.09a23.191 23.191 0 01-16.46 6.82z"/><path d="M465.45 279.27H186.18c-12.85 0-23.27-10.41-23.27-23.27 0-12.85 10.42-23.27 23.27-23.27h279.27c12.86 0 23.27 10.42 23.27 23.27.01 12.86-10.4 23.27-23.27 23.27z"/></symbol><symbol id="icon-pay" viewBox="0 0 512 512"><path d="M428.2 363.8l-28.6-29.1c-2.9-3-7.6-3.4-11-.9l-124.8 91.9-44.2-20.8 38.8-4.3c4.3-.5 7.5-4.2 7.4-8.4v-36.5c0-4.7-3.8-8.4-8.4-8.4h-42.2l-71.1-7.3c-1.4-.1-2.9.1-4.2.7l-48.5 20.8H0v16.9h93.1c1.2 0 2.3-.2 3.4-.7l48.1-21 69.4 7.1h35.4v20.9l-31.3 3.9-45.4-4.8c-4.1-.4-7.9 2.2-9 6.2-1.1 3.9.8 8.1 4.5 9.9l93.7 43.1c2.8 1.3 6 .9 8.4-.8L393.1 352l16.9 17.6-141.1 123h-38.3L95.9 442.5c-.9-.4-1.9-.6-3-.6H0v16.9h91.5L226.1 509c.9.3 1.9.5 3 .5H272c2.1 0 4-.8 5.6-2.1l150.2-131.3.4-.4c3.3-3.3 3.3-8.6 0-11.9zM450.7 213.9l-44.6-46.4c-1.4-1.5-3.3-2.4-5.4-2.6l-91.2-8.4h-34.8l1.7-25.3 33-6.7 46.1 10.3c1 .2 1.9.2 2.9 0l44.9-5.3-2-16.9-43.4 4.6-46.5-10.3c-1.1-.3-2.3-.3-3.5 0l-41.1 8.4c-3.8.7-6.6 3.9-6.8 7.8l-2.7 41.1v.5c0 4.7 3.8 8.4 8.5 8.4h43.1l87.3 7.9 44.9 47.1c1.6 1.7 3.8 2.6 6.1 2.6H507v-16.9h-56.3zM436 38c-.9-.8-2-1.3-3.2-1.5L289.2 2.7c-2.4-.5-5 .1-6.9 1.6l-92.9 67.6 10 13.7 89.8-65.3 138 32.4 74.6 58L512 97.1 436 38z"/><path d="M298.8 54.3c-2.2-1-4.7-1-6.9 0l-50.7 25.3 7.6 15L296.1 71l38.7 15.8 6.3-15.7-42.3-16.8zM211.4 147.9l-14.9-2.2c-6.8-1-10.7-3.6-10.7-7.9s5.9-8.4 13.9-8h6.1c7.9 0 13.9 4.2 13.9 8v2.3h16.9v-2.3c0-14.4-13.5-25.3-30.7-25.3h-6.1c-17.2 0-30.7 11-30.7 25.3 1.4 13.2 12.1 23.4 25.3 24.2l14.6 2.2c6.8 1 10.7 4.1 10.7 7.9 0 3.8-5.9 8-13.9 8h-6.1c-7.9 0-13.9-4.2-13.9-8v-2.3h-16.9v2.3c0 13.9 13.9 24.9 30.7 24.9h6.1c17.2 0 30.7-11 31-24.5-1.1-13.4-11.9-23.8-25.3-24.6z"/><path d="M269.7 163.6c-3.1 23-17.7 42.8-38.8 52.5-33.9 15.6-74 .7-89.6-33.2s-.7-74 33.2-89.6 74-.7 89.6 33.2l15.3-7.1c-13.8-29.9-43.7-49.1-76.7-49.1-46.7 0-84.5 37.8-84.5 84.5s37.8 84.5 84.5 84.5c42.4.1 78.3-31.3 83.9-73.3l-16.9-2.4z"/><path d="M194.3 104h16.9v16.9h-16.9z"/></symbol><symbol id="icon-portfolio" viewBox="0 0 512 512"><path d="M395.64 512H69.82C31.32 512 0 480.68 0 442.18V116.36c0-38.5 31.32-69.82 69.82-69.82h124.27c12.85 0 23.27 10.42 23.27 23.27s-10.42 23.27-23.27 23.27H69.82c-12.83 0-23.27 10.44-23.27 23.27v325.82c0 12.84 10.44 23.27 23.27 23.27h325.82c12.84 0 23.27-10.43 23.27-23.27V317.91c0-12.86 10.41-23.27 23.27-23.27s23.27 10.41 23.27 23.27v124.27c0 38.5-31.31 69.82-69.81 69.82z"/><path d="M256 372.36h-93.09c-12.85 0-23.27-10.41-23.27-23.27V256c0-6.17 2.45-12.09 6.82-16.45L379.18 6.82c9.09-9.09 23.82-9.09 32.91 0l93.09 93.09c9.09 9.09 9.09 23.82 0 32.91L272.45 365.55a23.25 23.25 0 01-16.45 6.81zm-69.82-46.54h60.18l209.45-209.45-60.18-60.18-209.45 209.45v60.18z"/></symbol><symbol id="icon-promo" viewBox="0 0 512 512"><path d="M237.7 146.3h36.6v146.3h-36.6V146.3zm91.4 73.1h36.6v73.1h-36.6v-73.1zm-182.8-36.5h36.6v109.7h-36.6V182.9z"/><path d="M420.6 36.6H274.3V0h-36.6v36.6H91.4c-20.2 0-36.6 16.4-36.6 36.6v256c0 20.2 16.4 36.6 36.6 36.6h146.3v109.7h-73.1V512h182.9v-36.6h-73.1V365.7h146.3c20.2 0 36.6-16.4 36.6-36.6v-256c-.2-20.2-16.5-36.5-36.7-36.5zm0 292.5H91.4v-256h329.1v256z"/></symbol><symbol id="icon-reportion" viewBox="0 0 512 512"><path d="M325.82 488.73c-10.02 0-18.91-6.41-22.07-15.91L186.18 120.14l-47.74 143.23a23.276 23.276 0 01-22.08 15.91H23.27C10.42 279.27 0 268.86 0 256c0-12.85 10.42-23.27 23.27-23.27h76.32L164.1 39.18a23.276 23.276 0 0144.16 0l117.56 352.68 47.75-143.23a23.254 23.254 0 0122.07-15.91h93.09c12.86 0 23.27 10.42 23.27 23.27 0 12.86-10.41 23.27-23.27 23.27h-76.32l-64.52 193.55a23.25 23.25 0 01-22.07 15.92z"/></symbol><symbol id="icon-salary" viewBox="0 0 512 512"><path d="M79 349c-1.9-1.9-4.4-2.9-7.1-2.9-2.6 0-5.2 1.1-7.1 2.9-1.9 1.9-2.9 4.4-2.9 7.1 0 2.6 1.1 5.2 2.9 7.1 1.9 1.9 4.4 2.9 7.1 2.9 2.6 0 5.2-1.1 7.1-2.9 1.9-1.9 2.9-4.4 2.9-7.1 0-2.7-1-5.2-2.9-7.1zM390.7 238.5c-22.1-14.8-47.9-22.7-74.5-22.7h-5.8c18.4-15.5 30-38.7 30-64.6V87.1c4.3-8 6.8-17.2 6.8-26.9V10c0-5.5-4.5-10-10-10H220.7c-32.3 0-58.5 26.3-58.5 58.5V75c0 9.8 3.3 18.8 8.9 25.9v50.3c0 25.9 11.7 49.1 30 64.6h-5.3c-30.4 0-60.2 10.5-83.9 29.5-23.3 18.7-39.8 45-46.6 74-1.3 5.4 2.1 10.8 7.5 12 .8.2 1.5.3 2.3.3 4.5 0 8.7-3.1 9.7-7.7 11.1-47.9 50.9-82.4 98.9-87.4l65.1 65.1c2 2 4.5 2.9 7.1 2.9 2.6 0 5.1-1 7.1-2.9l65.1-65.1c18.4 1.9 35.9 8.3 51.4 18.6 4.6 3.1 10.8 1.9 13.9-2.7s1.9-10.8-2.7-13.9zM182.2 75V58.5c0-21.2 17.3-38.5 38.5-38.5h106.4v40.2c0 20.5-16.7 37.1-37.1 37.1h-85.5c-12.3 0-22.3-10-22.3-22.3zM256 280.4l-44.5-44.5h89.1L256 280.4zm.1-64.5h-.8c-35.4-.2-64.2-29.1-64.2-64.6v-36.1c4.2 1.4 8.7 2.2 13.4 2.2H290c11.2 0 21.6-3.2 30.4-8.8v42.7c0 35.5-28.8 64.3-64.3 64.6zM276 370.2c-15.3 0-28.2 10.1-32.5 24H140.2c-4.3-13.9-17.2-24-32.5-24-18.7 0-34 15.3-34 34 0 5.7 1.4 11.2 4 15.9l-27.8 27.8c-4.7-2.5-10.2-4-15.9-4-18.7 0-34 15.3-34 34s15.3 34 34 34 34-15.3 34-34c0-5.7-1.4-11.2-4-15.9l27.8-27.8c4.7 2.5 10.2 4 15.9 4 15.3 0 28.2-10.1 32.5-24h103.3c4.3 13.9 17.2 24 32.5 24 18.7 0 34-15.3 34-34s-15.3-34-34-34zM34 491.9c-7.7 0-14-6.3-14-14s6.3-14 14-14 14 6.3 14 14-6.3 14-14 14zm73.7-73.7c-7.7 0-14-6.3-14-14s6.3-14 14-14 14 6.3 14 14-6.3 14-14 14zm168.3 0c-7.7 0-14-6.3-14-14s6.3-14 14-14 14 6.3 14 14-6.3 14-14 14zM328.1 356.1c-1.9-1.9-4.4-2.9-7.1-2.9-2.6 0-5.2 1.1-7.1 2.9-1.9 1.9-2.9 4.4-2.9 7.1 0 2.6 1.1 5.2 2.9 7.1 1.9 1.9 4.4 2.9 7.1 2.9 2.6 0 5.2-1.1 7.1-2.9 1.9-1.9 2.9-4.4 2.9-7.1 0-2.6-1-5.2-2.9-7.1zM502 172.1h-35.9c-5.5 0-10 4.5-10 10s4.5 10 10 10H478L341.3 328.8c-3.9 3.9-3.9 10.2 0 14.1 2 2 4.5 2.9 7.1 2.9s5.1-1 7.1-2.9L492 206.4V218c0 5.5 4.5 10 10 10s10-4.5 10-10v-36c0-5.5-4.5-9.9-10-9.9z"/><path d="M235.4 142.1c-1.9-1.9-4.4-2.9-7.1-2.9-2.6 0-5.2 1.1-7.1 2.9-1.9 1.9-2.9 4.4-2.9 7.1 0 2.6 1.1 5.2 2.9 7.1 1.9 1.9 4.4 2.9 7.1 2.9 2.6 0 5.2-1.1 7.1-2.9 1.9-1.9 2.9-4.4 2.9-7.1.1-2.7-1-5.2-2.9-7.1zM290.4 142.1c-1.9-1.9-4.4-2.9-7.1-2.9s-5.2 1.1-7.1 2.9c-1.9 1.9-2.9 4.4-2.9 7.1 0 2.6 1.1 5.2 2.9 7.1 1.9 1.9 4.4 2.9 7.1 2.9s5.2-1.1 7.1-2.9c1.9-1.9 2.9-4.4 2.9-7.1.1-2.7-1-5.2-2.9-7.1zM424 336c-48.5 0-88 39.5-88 88s39.5 88 88 88 88-39.5 88-88-39.5-88-88-88zm0 156c-37.5 0-68-30.5-68-68s30.5-68 68-68 68 30.5 68 68-30.5 68-68 68z"/><path d="M424 414.6c-4.6 0-8.5-3.1-8.5-6.8 0-3.7 3.9-6.8 8.5-6.8s8.5 3.1 8.5 6.8c0 5.5 4.5 10 10 10s10-4.5 10-10c0-11.5-7.7-21.3-18.6-25.1-.3-5.2-4.7-9.3-10-9.3s-9.6 4.1-10 9.3c-10.8 3.8-18.6 13.6-18.6 25.1 0 14.8 12.8 26.8 28.5 26.8 4.6 0 8.5 3.1 8.5 6.8s-3.9 6.8-8.5 6.8-8.5-3.1-8.5-6.8c0-5.5-4.5-10-10-10s-10 4.5-10 10c0 11.5 7.8 21.4 18.6 25.1.7 4.9 4.8 8.7 9.9 8.7s9.2-3.8 9.9-8.7c10.9-3.8 18.6-13.6 18.6-25.1.2-14.7-12.6-26.8-28.3-26.8z"/></symbol><symbol id="icon-settings" viewBox="0 0 512 512"><path d="M256 341.33c-47.05 0-85.33-38.27-85.33-85.33 0-47.05 38.28-85.33 85.33-85.33 47.06 0 85.33 38.28 85.33 85.33 0 47.06-38.27 85.33-85.33 85.33zm0-128c-23.53 0-42.67 19.14-42.67 42.67 0 23.52 19.14 42.67 42.67 42.67 23.52 0 42.67-19.15 42.67-42.67 0-23.53-19.15-42.67-42.67-42.67z"/><path d="M257.71 512c-35.29 0-64-28.71-64-64-.14-7.15-3.69-12.13-9.06-14.1-6.49-2.81-12.5-1.73-16.54 2.27-26.25 26.23-67.73 25.1-91.69 1.08C64.34 425.19 57.68 409.1 57.68 392s6.67-33.19 18.77-45.29c5.08-5.17 6.18-11.17 3.88-16.4-2.27-5.27-7.25-8.58-12.79-8.6H64c-35.29 0-64-28.71-64-64s28.71-64 64-64c7.15-.14 12.14-3.7 14.11-9.07 2.8-6.47 1.72-12.47-2.27-16.53-13.21-13.22-19.88-29.3-19.88-46.4 0-16.86 6.84-33.38 18.77-45.28 23.77-23.81 66.73-23.83 90.54.02 5.17 5.08 11.19 6.15 16.41 3.88 1.36-.6 2.78-1.05 4.23-1.36 3.75-2.53 6.06-6.78 6.08-11.42V64c0-35.29 28.71-64 64-64s64 28.71 64 64c.02 7.36 3.33 12.34 8.42 14.53 5.4 2.38 11.42 1.3 15.5-2.69 26.17-26.25 67.63-25.17 91.67-1.1 11.9 11.88 18.75 28.39 18.75 45.26s-6.85 33.39-18.79 45.29c-5.06 5.17-6.17 11.17-3.85 16.39.6 1.36 1.06 2.79 1.35 4.25a13.87 13.87 0 0011.42 6.07H448c35.29 0 64 28.71 64 64s-28.71 64-64 64c-7.35.02-12.33 3.31-14.52 8.4-.02.08-.06.15-.08.23-2.31 5.21-1.21 11.21 2.77 15.29 13.02 13 19.88 29.5 19.88 46.38 0 17.13-6.67 33.21-18.79 45.29-24.08 24.17-66.38 24.21-90.54-.04-5.17-5.06-11.21-6.21-16.38-3.85-5.31 2.27-8.6 7.25-8.63 12.79V448c0 35.29-28.71 64-64 64zm-79.65-122.44c7.64 0 15.28 1.58 22.55 4.79 20.67 7.54 35.2 27.85 35.75 51.23.01.17.01 2.25.01 2.42 0 11.77 9.57 21.33 21.33 21.33 11.77 0 21.33-9.56 21.33-21.33v-3.63c.1-22.65 13.56-42.96 34.27-51.81 21-9.31 45.52-4.88 62.15 11.4 10.96 10.96 23.58 9.5 31.63 1.46 4.06-4.06 6.29-9.42 6.29-15.13 0-5.63-2.27-11.13-6.25-15.08-17.69-18.04-22.13-42.46-12.81-63.71 8.88-20.65 29.17-34.06 51.67-34.17 13.79 0 23.35-9.56 23.35-21.33 0-11.76-9.56-21.33-21.33-21.33h-3.63c-22.63-.08-42.94-13.53-51.81-34.27-.77-1.79-1.29-3.69-1.54-5.61-7.15-20.25-2.27-42.69 12.94-58.24 5.44-5.43 7.71-10.92 7.71-16.54s-2.27-11.11-6.25-15.08c-8.08-8.08-22.25-8.03-30.21-.03-18.08 17.73-42.58 22.15-63.83 12.77-20.5-8.8-33.94-29.1-34.04-51.65 0-13.77-9.56-23.34-21.33-23.34-11.76 0-21.33 9.57-21.33 21.33v3.63c-.08 22.63-13.53 42.94-34.26 51.82-1.8.77-3.7 1.29-5.64 1.55-20.24 7.11-42.68 2.26-58.23-12.95-10.83-10.85-23.7-9.4-31.64-1.46-3.99 3.99-6.27 9.49-6.27 15.11 0 5.7 2.22 11.06 6.26 15.1 17.71 18.05 22.15 42.53 12.76 63.8-7.56 20.68-27.88 35.2-51.23 35.75-.18.01-2.26.01-2.43.01-11.76 0-21.33 9.57-21.33 21.33 0 11.77 9.57 21.33 21.33 21.33h3.63c22.64.1 42.94 13.54 51.82 34.25 9.29 21.08 4.85 45.56-11.4 62.17-5.49 5.48-7.71 10.83-7.71 16.54s2.22 11.06 6.25 15.08c8.07 8.1 22.21 8.06 30.21.02 11.89-11.63 26.56-17.53 41.26-17.53zM413.88 320h.21-.21z"/></symbol><symbol id="icon-star-border" viewBox="0 0 512 512"><defs><path id="a" d="M261.1 414.3l-5.1-3.2-5.1 3.2-119.5 75.4c-14.5 9.2-32.6-4.5-28.6-22.5l31.7-142.3 1.2-5.4-4.1-3.7L25.9 220c-13.2-12-6.1-34.9 10.8-36.3l139.2-12.4 5.8-.5 2.2-5.4 54.4-134.1c6.6-16.5 28.8-16.5 35.4 0l54.5 134.5 2.2 5.4 5.8.5 139 12.3c17 1.4 24.1 24.3 10.9 36.3l-105.7 95.9-4.1 3.7 1.2 5.4 31.7 142.3c4 17.9-14.1 31.7-28.6 22.5l-119.5-75.8zm-10.2 16.1L370.5 506c29.2 18.5 64.8-8.6 57.2-42.6L396 321.1l-2.9 9.1 105.7-95.8c25.3-22.9 11.8-66.4-22-69.2l-139.1-12.4 7.9 5.9-54.3-134.5c-13-32.3-57.6-32.3-70.6 0l-54.4 134.1 7.9-5.9-139.1 12.4c-33.7 2.8-47.3 46.3-21.9 69.2l105.7 95.8-2.9-9.1-31.7 142.4c-7.6 34 28.1 61.1 57.2 42.6L261 430.4h-10.1z"/></defs><use xmlns:xlink="http://www.w3.org/1999/xlink" xlink:href="#a" overflow="visible"/></symbol><symbol id="icon-star-center" viewBox="0 0 512 512"><defs><path id="a" d="M256 428.8l124.2 78.6c22.7 14.4 50.6-6.9 44.6-33.8l-32.9-147.8 109.8-99.5c20-18.2 9.3-52.6-17.1-54.8l-144.5-12.8L283.5 19c-10.2-25.4-44.9-25.4-55 0L172 158.3 27.4 171.1c-26.3 2.2-37.1 36.6-17.1 54.8l109.8 99.5-32.8 147.8c-6 26.9 21.8 48.2 44.6 33.8L256 428.8z"/></defs><use xlink:href="#a" overflow="visible"/></symbol><symbol id="icon-start" viewBox="0 0 512 512"><path d="M256 165c-50.2 0-91 40.8-91 91 0 17.7 5.1 34.2 13.8 48.1l.9 1.5C196 330.5 224.1 347 256 347c50.2 0 91-40.8 91-91s-40.8-91-91-91zm-65.7 117.8c-3.4-8.3-5.3-17.3-5.3-26.8 0-39.1 31.8-71 71-71 24 0 45.2 11.9 58 30.2l-54.9 54.9-21-21c-3.9-3.9-10.2-3.9-14.1 0l-33.7 33.7zM256 327c-22.3 0-42.2-10.3-55.2-26.4l30.3-30.3 21 21c3.9 3.9 10.2 3.9 14.1 0l57.3-57.3c2.3 6.9 3.5 14.3 3.5 22 0 39.1-31.9 71-71 71z"/><path d="M409.8 249.1c-1.6-48.9-15.2-96.8-39.8-139.2-26.1-45.1-63.8-82.6-109-108.6-3.1-1.8-6.9-1.8-9.9 0-45.2 25.9-82.9 63.5-109.1 108.6-24.5 42.4-38.2 90.3-39.8 139.2-35.1 15-58.2 49.7-58.2 88.3V408c0 5.5 4.5 10 10 10h146.9c2.2 30.1 15.3 58.9 36.9 80.1l11.2 11c1.9 1.9 4.5 2.9 7 2.9s5.1-1 7-2.9l11.2-11c21.6-21.2 34.7-50.1 36.9-80.1H342v51.6c0 5.5 4.5 10 10 10s10-4.5 10-10V418h96c5.5 0 10-4.5 10-10v-70.6c0-38.6-23.1-73.3-58.2-88.3zM256 21.6c31.4 18.9 58.3 43.7 79.6 72.4H176.4c21.3-28.7 48.2-53.5 79.6-72.4zM64 398v-60.6c0-27.5 14.8-52.4 38-65.8V388c0 3.5.6 6.9 1.7 10H64zm196.1 85.9L256 488l-4.1-4.1c-17.8-17.5-28.7-41.1-30.9-65.9h70c-2.1 24.7-13.1 48.4-30.9 65.9zM390 388c0 5.5-4.5 10-10 10H132c-5.5 0-10-4.5-10-10V258.6c0-36.2 7.2-71.5 20.4-104.1h45.3c5.5 0 10-4.5 10-10s-4.5-10-10-10h-36.2c3.5-7 7.3-13.8 11.4-20.5H349c26.3 42.9 40.9 92.8 40.9 144.6V388zm58 10h-39.7c1.1-3.1 1.7-6.5 1.7-10V271.5c23.2 13.4 38 38.3 38 65.8V398z"/><path d="M231.1 137.4c-1.9-1.9-4.4-2.9-7.1-2.9s-5.2 1.1-7.1 2.9-2.9 4.4-2.9 7.1 1.1 5.2 2.9 7.1 4.4 2.9 7.1 2.9 5.2-1.1 7.1-2.9c1.9-1.9 2.9-4.4 2.9-7.1s-1.1-5.2-2.9-7.1zM160 444.8c-5.5 0-10 4.5-10 10v30.8c0 5.5 4.5 10 10 10s10-4.5 10-10v-30.8c0-5.6-4.5-10-10-10zM359.1 494.9c-1.9-1.9-4.4-2.9-7.1-2.9s-5.2 1.1-7.1 2.9c-1.9 1.9-2.9 4.4-2.9 7.1s1.1 5.2 2.9 7.1c1.9 1.9 4.4 2.9 7.1 2.9s5.2-1.1 7.1-2.9c1.9-1.9 2.9-4.4 2.9-7.1s-1.1-5.2-2.9-7.1z"/></symbol><symbol id="icon-support" viewBox="0 0 512 512"><path d="M509.04 355.86l-24.41-24.21c-3.92-3.89-10.26-3.86-14.14.06-3.89 3.92-3.86 10.26.06 14.14l24.41 24.21c1.95 1.93 4.5 2.9 7.04 2.9 2.57 0 5.15-.99 7.1-2.96 3.89-3.92 3.86-10.25-.06-14.14zM459.76 306.88c-3.91-3.91-10.24-3.91-14.14 0l-.02.02c-3.91 3.91-3.9 10.23.01 14.14a9.973 9.973 0 007.07 2.93c2.56 0 5.13-.98 7.08-2.93 3.91-3.92 3.91-10.25 0-14.16z"/><path d="M374.49 353l97.03-97.03c14.7-14.7 14.7-38.61 0-53.3a37.481 37.481 0 00-18.18-10.06c2.29-4.91 3.5-10.31 3.5-15.89 0-10.07-3.92-19.53-11.04-26.65-5.58-5.58-12.61-9.19-20.24-10.49 4.3-13.09 1.26-28.07-9.13-38.46a37.433 37.433 0 00-20.23-10.46c1.24-3.77 1.9-7.75 1.9-11.83 0-10.07-3.92-19.53-11.04-26.65-7.12-7.12-16.58-11.04-26.65-11.04-6.39 0-12.54 1.59-18 4.56l-.96-1.04c-12.54-13.48-30.3-21.21-48.7-21.21H214.2c-5.52 0-10 4.48-10 10v13.12c0 5.25.89 10.36 2.59 15.16a37.603 37.603 0 00-14.46-2.87c-10.07 0-19.53 3.92-26.65 11.04-10.39 10.39-13.43 25.39-9.12 38.48a37.472 37.472 0 00-20.25 10.47c-7.12 7.12-11.04 16.58-11.04 26.65 0 4.08.65 8.05 1.89 11.81-7.62 1.3-14.64 4.91-20.22 10.49-11.48 11.48-13.99 28.58-7.54 42.52-6.83 1.56-13.1 5-18.18 10.08-14.69 14.7-14.69 38.61 0 53.3l19.95 19.95-98.24 98.24a10 10 0 000 14.15c1.95 1.95 4.51 2.93 7.07 2.93s5.12-.98 7.07-2.93l99.18-99.18c5.61 3.2 11.99 4.92 18.63 4.92 10.07 0 19.53-3.92 26.65-11.04 7.73-7.73 11.39-18.02 10.99-28.17.51.02 1.01.04 1.52.04 9.65 0 19.31-3.67 26.65-11.02 7.12-7.12 11.04-16.58 11.04-26.65 0-.51-.02-1.01-.04-1.52.5.02 1 .04 1.5.04 9.65 0 19.3-3.67 26.65-11.02 7.12-7.12 11.04-16.58 11.04-26.65 0-.51-.02-1.01-.04-1.52.5.02 1 .04 1.5.04 9.65 0 19.3-3.67 26.65-11.02 13.81-13.81 14.64-35.75 2.5-50.54l66.39-66.39c3.34-3.34 7.78-5.18 12.51-5.18s9.17 1.84 12.51 5.18a17.57 17.57 0 015.18 12.51c0 4.72-1.84 9.17-5.18 12.51l-9.79 9.79-35.52 35.52a10 10 0 000 14.15c1.95 1.95 4.51 2.93 7.07 2.93s5.12-.98 7.07-2.93l35.52-35.52c6.89-6.9 18.12-6.9 25.01 0 6.9 6.9 6.9 18.12 0 25.01l-9.79 9.79-25.73 25.73a10 10 0 000 14.15c1.95 1.95 4.51 2.93 7.07 2.93s5.12-.98 7.07-2.93l25.73-25.73a17.57 17.57 0 0112.51-5.18c4.73 0 9.17 1.84 12.51 5.18a17.57 17.57 0 015.18 12.51c0 4.72-1.84 9.17-5.18 12.51l-13.44 13.44-12.29 12.29a10 10 0 000 14.15c1.95 1.95 4.51 2.93 7.07 2.93s5.12-.98 7.07-2.93l12.3-12.3c6.9-6.88 18.11-6.88 25 .01 6.9 6.9 6.9 18.12 0 25.01l-97.03 97.03c-24.36 24.36-56.74 38.47-91.18 39.72a9.975 9.975 0 00-6.72 2.94l-89.63 89.96c-3.9 3.91-3.89 10.25.03 14.14a9.998 9.998 0 007.06 2.92c2.57 0 5.13-.98 7.09-2.94l65.93-66.17c16.75 10.74 36.44 15.85 56.47 14.53l51.6 51.6a9.973 9.973 0 007.07 2.93c2.56 0 5.12-.98 7.07-2.93a10 10 0 000-14.15l-54.86-54.87a9.996 9.996 0 00-7.89-2.9l-3.17.26a73.08 73.08 0 01-41.74-9.08l6.43-6.45c38.02-2.4 73.62-18.42 100.62-45.43zm-227.1-66.41a17.57 17.57 0 01-12.51 5.18c-4.73 0-9.17-1.84-12.51-5.18l-27.03-27.02c-6.9-6.9-6.9-18.12 0-25.01a17.57 17.57 0 0112.51-5.18c4.72 0 9.17 1.84 12.51 5.18l27.03 27.02c6.9 6.89 6.9 18.11 0 25.01zm39.16-39.16c-6.9 6.9-18.12 6.9-25.01 0l-27.03-27.03-13.44-13.44c-6.9-6.9-6.9-18.12 0-25.01a17.57 17.57 0 0112.51-5.18c4.73 0 9.17 1.84 12.51 5.18l40.46 40.46c3.34 3.34 5.18 7.78 5.18 12.51s-1.84 9.17-5.18 12.51zm39.16-39.16c-6.9 6.9-18.12 6.9-25.01 0l-50.25-50.25a17.57 17.57 0 01-5.18-12.51c0-4.72 1.84-9.17 5.18-12.51 3.45-3.45 7.98-5.17 12.51-5.17 4.53 0 9.05 1.72 12.5 5.16l22.9 22.9 27.36 27.36a17.57 17.57 0 015.18 12.51c-.01 4.73-1.85 9.17-5.19 12.51zm39.15-39.15c-6.9 6.9-18.12 6.9-25.01 0l-50.25-50.25c-.01 0-.01-.01-.02-.02l-9.77-9.77c-6.9-6.9-6.9-18.12 0-25.01 3.45-3.45 7.98-5.17 12.51-5.17s9.06 1.72 12.51 5.17l60.04 60.04a17.57 17.57 0 015.18 12.51c-.01 4.71-1.84 9.16-5.19 12.5zm2.63-50.68l-27.47-27.47c3.12.67 6.32 1.02 9.58 1.02h.22l27.45-.13c5.52-.03 9.98-4.53 9.95-10.05-.03-5.51-4.5-9.96-10-9.96h-.05l-27.45.13h-.12c-6.76 0-13.12-2.63-17.92-7.4-4.83-4.8-7.48-11.2-7.48-18.01v-3.11h68.54c12.88 0 25.29 5.4 34.06 14.83l.41.44-59.72 59.71z"/></symbol><symbol id="icon-team" viewBox="0 0 512 512"><path d="M362.67 496.5c-11.79 0-21.33-9.54-21.33-21.33v-112.5c0-35.29-28.71-64-64-64H106.67c-35.29 0-64 28.71-64 64v112.5c0 11.79-9.55 21.33-21.33 21.33S0 486.96 0 475.17v-112.5C0 303.85 47.85 256 106.67 256h170.67C336.15 256 384 303.85 384 362.67v112.5c0 11.79-9.54 21.33-21.33 21.33zM192 213.33c-58.81 0-106.67-47.85-106.67-106.67S133.19 0 192 0s106.67 47.85 106.67 106.67S250.81 213.33 192 213.33zm0-170.66c-35.29 0-64 28.71-64 64s28.71 64 64 64 64-28.71 64-64-28.71-64-64-64zM490.67 512c-11.79 0-21.33-9.54-21.33-21.33v-128c-.02-29.15-19.75-54.6-48-61.92-11.42-2.94-18.27-14.58-15.31-25.98 2.94-11.44 14.6-18.4 25.98-15.31 47.08 12.17 79.98 54.6 80 103.19v128.02C512 502.46 502.46 512 490.67 512zM341.31 210.77c-9.5 0-18.19-6.41-20.65-16.04-2.92-11.42 3.96-23.03 15.38-25.96 28.33-7.26 48.13-32.75 48.13-62s-19.79-54.74-48.13-62c-11.42-2.93-18.29-14.54-15.38-25.96C323.58 7.4 335.22.47 346.62 3.43c47.23 12.09 80.21 54.58 80.21 103.33S393.85 198 346.62 210.09c-1.77.47-3.56.68-5.31.68z"/></symbol><symbol id="icon-transaction" viewBox="0 0 505 512"><path d="M444.5 448h-384c-35.29 0-64-28.71-64-64V128c0-35.29 28.71-64 64-64h384c35.29 0 64 28.71 64 64v256c0 35.29-28.71 64-64 64zm-384-341.33c-11.76 0-21.33 9.57-21.33 21.33v256c0 11.77 9.57 21.33 21.33 21.33h384c11.77 0 21.33-9.56 21.33-21.33V128c0-11.76-9.56-21.33-21.33-21.33h-384z"/><path d="M487.17 234.67H17.83c-11.78 0-21.33-9.55-21.33-21.33S6.05 192 17.83 192h469.33c11.79 0 21.33 9.55 21.33 21.33s-9.53 21.34-21.32 21.34z"/></symbol><symbol id="icon-unlock" viewBox="0 0 512 512"><path d="M418.9 511H93.1c-38.5 0-69.8-31.3-69.8-69.8V278.3c0-38.5 31.3-69.8 69.8-69.8h325.7c38.5 0 69.8 31.3 69.8 69.8v162.9c.1 38.5-31.2 69.8-69.7 69.8zM93.1 255.1c-12.8 0-23.3 10.4-23.3 23.3v162.9c0 12.8 10.4 23.3 23.3 23.3h325.7c12.8 0 23.3-10.4 23.3-23.3v-163c0-12.8-10.4-23.3-23.3-23.3H93.1z"/><path d="M139.7 255.1c-12.8 0-23.3-10.4-23.3-23.3v-93.1C116.3 66.7 170.3 7 242-.3c71.6-7.2 136.5 40.5 150.8 111.1 2.6 12.6-5.6 24.9-18.2 27.4s-24.9-5.6-27.4-18.2c-9.6-47.1-52.8-79-100.6-74.1-47.8 4.8-83.8 44.7-83.7 92.7v93.1c0 12.9-10.4 23.4-23.2 23.4z"/></symbol></svg>