<?xml version="1.0" encoding="utf-8"?>
<!-- Generator: Adobe Illustrator 23.0.3, SVG Export Plug-In . SVG Version: 6.00 Build 0)  -->
<svg version="1.1" id="Шар_1" xmlns="http://www.w3.org/2000/svg" xmlns:xlink="http://www.w3.org/1999/xlink" x="0px" y="0px"
	 viewBox="0 0 814.4 94.6" style="enable-background:new 0 0 814.4 94.6;" xml:space="preserve">
<style type="text/css">
	.st0{enable-background:new    ;}
	.st1{fill:#560DCB;}
</style>
<g class="st0">
	<path class="st1" d="M17.8,70.7C12.3,67.6,7.9,63.4,4.8,58C1.6,52.5,0,46.4,0,39.7C0,33,1.6,26.9,4.8,21.5
		c3.2-5.4,7.5-9.7,13.1-12.8c5.6-3.1,11.9-4.6,18.8-4.6c5.2,0,10,0.9,14.4,2.6c4.4,1.7,8.1,4.3,11.2,7.6L57.6,19
		c-5.5-5.5-12.4-8.3-20.7-8.3c-5.5,0-10.6,1.3-15.1,3.8c-4.5,2.5-8.1,6-10.6,10.4c-2.6,4.4-3.9,9.3-3.9,14.8
		c0,5.5,1.3,10.4,3.9,14.8c2.6,4.4,6.1,7.9,10.6,10.4c4.5,2.5,9.6,3.8,15.1,3.8c8.4,0,15.3-2.8,20.7-8.4l4.7,4.7
		c-3.1,3.3-6.8,5.9-11.3,7.7c-4.4,1.8-9.3,2.6-14.5,2.6C29.7,75.3,23.4,73.8,17.8,70.7z"/>
	<path class="st1" d="M82.1,71.8c-4.1-2.3-7.3-5.5-9.6-9.5c-2.3-4.1-3.5-8.7-3.5-13.8c0-5.1,1.2-9.7,3.5-13.8
		c2.3-4.1,5.5-7.2,9.6-9.5c4.1-2.3,8.6-3.4,13.7-3.4c5.1,0,9.6,1.1,13.7,3.4c4.1,2.3,7.3,5.4,9.5,9.5c2.3,4.1,3.5,8.7,3.5,13.8
		c0,5.1-1.1,9.7-3.5,13.8c-2.3,4.1-5.5,7.3-9.5,9.5c-4.1,2.3-8.6,3.5-13.7,3.5C90.7,75.2,86.2,74,82.1,71.8z M105.9,66.4
		c3-1.7,5.3-4.1,6.9-7.3c1.7-3.1,2.5-6.7,2.5-10.7s-0.8-7.6-2.5-10.7c-1.7-3.1-4-5.5-6.9-7.3c-3-1.7-6.3-2.5-10.1-2.5
		c-3.7,0-7.1,0.8-10,2.5c-3,1.7-5.3,4.1-7,7.3c-1.7,3.1-2.6,6.7-2.6,10.7S77,56,78.8,59.1c1.7,3.1,4,5.5,7,7.3c3,1.7,6.3,2.5,10,2.5
		C99.5,68.9,102.9,68,105.9,66.4z"/>
	<path class="st1" d="M136.9,9.1c-1-1-1.5-2.2-1.5-3.6c0-1.3,0.5-2.5,1.5-3.5s2.2-1.5,3.7-1.5c1.5,0,2.7,0.5,3.7,1.5
		c1,1,1.5,2.1,1.5,3.5c0,1.5-0.5,2.7-1.5,3.7s-2.2,1.5-3.7,1.5C139.1,10.6,137.9,10.1,136.9,9.1z M137,22.1h7.1v52.6H137V22.1z"/>
	<path class="st1" d="M206.4,27.5c3.9,3.8,5.8,9.4,5.8,16.8v30.5h-7.1V44.9c0-5.5-1.4-9.6-4.1-12.5c-2.7-2.9-6.6-4.3-11.7-4.3
		c-5.7,0-10.1,1.7-13.4,5c-3.3,3.4-5,8-5,14v27.6h-7.1V22.1h6.8v9.7c1.9-3.2,4.6-5.7,8-7.4c3.4-1.8,7.4-2.7,12-2.7
		C197.3,21.7,202.5,23.6,206.4,27.5z"/>
	<path class="st1" d="M242,8.5c-1.6,1.7-2.4,4.1-2.4,7.4v6.2h16.2v6h-16v46.6h-7.1V28.1h-9.4v-6h9.4v-6.5c0-4.8,1.4-8.6,4.1-11.4
		c2.8-2.8,6.7-4.2,11.8-4.2c2,0,3.9,0.3,5.8,0.9c1.9,0.6,3.4,1.4,4.7,2.4l-2.4,5.3C254.7,6.9,252.1,6,249,6
		C245.9,6,243.6,6.8,242,8.5z M273.4,9.1c-1-1-1.5-2.2-1.5-3.6c0-1.3,0.5-2.5,1.5-3.5s2.2-1.5,3.7-1.5c1.5,0,2.7,0.5,3.7,1.5
		c1,1,1.5,2.1,1.5,3.5c0,1.5-0.5,2.7-1.5,3.7s-2.2,1.5-3.7,1.5C275.6,10.6,274.4,10.1,273.4,9.1z M273.5,22.1h7.1v52.6h-7.1V22.1z"
		/>
	<path class="st1" d="M342.9,27.5c3.9,3.8,5.8,9.4,5.8,16.8v30.5h-7.1V44.9c0-5.5-1.4-9.6-4.1-12.5c-2.7-2.9-6.6-4.3-11.7-4.3
		c-5.7,0-10.2,1.7-13.5,5c-3.3,3.4-5,8-5,14v27.6h-7.1V22.1h6.8v9.7c1.9-3.2,4.6-5.7,8-7.4c3.4-1.8,7.4-2.7,12-2.7
		C333.8,21.7,339,23.6,342.9,27.5z"/>
	<path class="st1" d="M368,9.1c-1-1-1.5-2.2-1.5-3.6c0-1.3,0.5-2.5,1.5-3.5s2.2-1.5,3.7-1.5c1.5,0,2.7,0.5,3.7,1.5
		c1,1,1.5,2.1,1.5,3.5c0,1.5-0.5,2.7-1.5,3.7s-2.2,1.5-3.7,1.5C370.2,10.6,369,10.1,368,9.1z M368.1,22.1h7.1v52.6h-7.1V22.1z"/>
	<path class="st1" d="M422.7,71.5c-1.3,1.2-3,2.1-4.9,2.8c-2,0.6-4,1-6.2,1c-4.9,0-8.7-1.3-11.4-4c-2.7-2.7-4-6.4-4-11.3V28.1h-9.4
		v-6h9.4V10.6h7.1v11.5h16v6h-16v31.4c0,3.1,0.8,5.5,2.3,7.2c1.6,1.6,3.8,2.5,6.8,2.5c1.5,0,2.9-0.2,4.3-0.7c1.4-0.5,2.5-1.1,3.5-2
		L422.7,71.5z"/>
	<path class="st1" d="M478.8,22.1L452.5,81c-2.1,4.9-4.6,8.4-7.4,10.5c-2.8,2.1-6.2,3.1-10.1,3.1c-2.5,0-4.9-0.4-7.1-1.2
		s-4.1-2-5.7-3.6l3.3-5.3c2.7,2.7,5.9,4,9.6,4c2.4,0,4.4-0.7,6.1-2c1.7-1.3,3.3-3.6,4.8-6.8l2.3-5.1l-23.5-52.5h7.4L452,66.8
		l19.8-44.7H478.8z"/>
	<path class="st1" d="M565.8,39.7h7.1v26.7c-3.3,2.9-7.1,5.1-11.6,6.6c-4.5,1.5-9.2,2.3-14.1,2.3c-7,0-13.3-1.5-18.9-4.6
		c-5.6-3.1-10-7.3-13.2-12.8c-3.2-5.4-4.8-11.5-4.8-18.3c0-6.7,1.6-12.8,4.8-18.3c3.2-5.4,7.6-9.7,13.2-12.8
		c5.6-3.1,11.9-4.6,19-4.6c5.3,0,10.2,0.8,14.7,2.5c4.5,1.7,8.2,4.2,11.3,7.5l-4.6,4.7c-5.5-5.5-12.6-8.2-21.1-8.2
		c-5.7,0-10.8,1.3-15.3,3.8c-4.6,2.5-8.2,6-10.8,10.4c-2.6,4.4-3.9,9.4-3.9,14.8c0,5.5,1.3,10.4,3.9,14.8c2.6,4.4,6.2,7.9,10.7,10.4
		c4.5,2.5,9.6,3.8,15.3,3.8c7.2,0,13.3-1.8,18.3-5.4V39.7z"/>
	<path class="st1" d="M606.5,24.4c3.3-1.8,7.4-2.7,12.3-2.7v6.9l-1.7-0.1c-5.5,0-9.9,1.7-13,5.1c-3.1,3.4-4.7,8.2-4.7,14.3v26.8
		h-7.1V22.1h6.8v10.3C600.8,28.9,603.2,26.2,606.5,24.4z"/>
	<path class="st1" d="M638.9,71.8c-4.1-2.3-7.3-5.5-9.6-9.5c-2.3-4.1-3.5-8.7-3.5-13.8c0-5.1,1.2-9.7,3.5-13.8
		c2.3-4.1,5.5-7.2,9.6-9.5c4.1-2.3,8.6-3.4,13.7-3.4c5.1,0,9.6,1.1,13.7,3.4c4.1,2.3,7.3,5.4,9.6,9.5c2.3,4.1,3.4,8.7,3.4,13.8
		c0,5.1-1.1,9.7-3.4,13.8c-2.3,4.1-5.5,7.3-9.6,9.5s-8.6,3.5-13.7,3.5C647.5,75.2,643,74,638.9,71.8z M662.6,66.4
		c3-1.7,5.3-4.1,7-7.3c1.7-3.1,2.5-6.7,2.5-10.7s-0.8-7.6-2.5-10.7c-1.7-3.1-4-5.5-7-7.3c-3-1.7-6.3-2.5-10-2.5
		c-3.7,0-7.1,0.8-10.1,2.5c-3,1.7-5.3,4.1-7,7.3c-1.7,3.1-2.5,6.7-2.5,10.7s0.9,7.6,2.5,10.7c1.7,3.1,4,5.5,7,7.3
		c3,1.7,6.3,2.5,10.1,2.5C656.3,68.9,659.7,68,662.6,66.4z"/>
	<path class="st1" d="M741.2,22.1v52.6h-6.8v-9.6c-1.9,3.2-4.4,5.7-7.7,7.4c-3.3,1.8-7,2.7-11.2,2.7c-6.9,0-12.3-1.9-16.3-5.8
		c-4-3.8-5.9-9.5-5.9-16.8V22.1h7.1v29.8c0,5.5,1.4,9.7,4.1,12.6c2.7,2.9,6.6,4.3,11.7,4.3c5.5,0,9.9-1.7,13.1-5
		c3.2-3.4,4.8-8,4.8-14V22.1H741.2z"/>
	<path class="st1" d="M801.6,25c4,2.2,7.1,5.4,9.4,9.5c2.3,4.1,3.4,8.7,3.4,13.9c0,5.3-1.1,9.9-3.4,14c-2.3,4.1-5.4,7.2-9.3,9.5
		c-4,2.2-8.5,3.3-13.5,3.3c-4.3,0-8.1-0.9-11.5-2.7c-3.4-1.8-6.3-4.3-8.5-7.8v29.3h-7.1v-72h6.8v10.4c2.1-3.5,5-6.1,8.5-8
		c3.5-1.9,7.4-2.8,11.8-2.8C793.1,21.7,797.6,22.8,801.6,25z M797.7,66.4c3-1.7,5.3-4.1,7-7.3c1.7-3.1,2.5-6.7,2.5-10.7
		s-0.8-7.5-2.5-10.7c-1.7-3.1-4-5.5-7-7.3c-3-1.7-6.3-2.6-10-2.6c-3.7,0-7.1,0.9-10,2.6c-3,1.7-5.3,4.2-7,7.3
		c-1.7,3.1-2.5,6.7-2.5,10.7s0.8,7.6,2.5,10.7c1.7,3.1,4,5.5,7,7.3c3,1.7,6.3,2.5,10,2.5C791.4,68.9,794.7,68,797.7,66.4z"/>
</g>
</svg>
