<?xml version="1.0" encoding="utf-8"?>
<!-- Generator: Adobe Illustrator 23.0.3, SVG Export Plug-In . SVG Version: 6.00 Build 0)  -->
<svg version="1.1" id="Шар_1" xmlns="http://www.w3.org/2000/svg" xmlns:xlink="http://www.w3.org/1999/xlink" x="0px" y="0px"
	 viewBox="0 0 257.8 274" style="enable-background:new 0 0 257.8 274;" xml:space="preserve">
<style type="text/css">
	.st0{fill:#560DCB;}
	.st1{fill:url(#SVGID_1_);}
	.st2{fill-rule:evenodd;clip-rule:evenodd;fill:url(#Path_2_);}
	.st3{fill:url(#SVGID_2_);}
	.st4{fill-rule:evenodd;clip-rule:evenodd;fill:#0D56DC;}
</style>
<path class="st0" d="M130,274h-1c-2.2,0-4-1.8-4-4v-73c0-2.2,1.8-4,4-4h1c2.2,0,4,1.8,4,4v73C134,272.2,132.2,274,130,274z"/>
<linearGradient id="SVGID_1_" gradientUnits="userSpaceOnUse" x1="339.14" y1="387.1069" x2="339.14" y2="386.9947" gradientTransform="matrix(250 0 0 -250 -84656 96892)">
	<stop  offset="0" style="stop-color:#0C56DC"/>
	<stop  offset="1" style="stop-color:#5C07CA"/>
</linearGradient>
<path class="st1" d="M143,258c-0.9,0-1.9-0.3-2.6-0.9c-0.9-0.8-1.4-1.9-1.4-3.1v-39c0-2.2,1.8-4,4-4s4,1.8,4,4v34.2
	c22.8-4.6,43.2-14.1,60.5-28.3c29.4-24,42.5-63,42.5-90.9c0-29.4-11.5-60.5-30-81.3C198.4,24.3,161.8,8,129,8
	C98.1,8,69,20.1,44.7,42.9C21.4,64.9,8,96.6,8,130c0,12.1,2.9,54.2,40.2,88.6c16.4,15.1,37.5,25.4,62.8,30.6V215c0-2.2,1.8-4,4-4
	s4,1.8,4,4v39c0,1.2-0.5,2.3-1.4,3.1c-0.9,0.8-2.1,1.1-3.3,0.9c-28.9-5.2-52.9-16.4-71.5-33.5C3.1,187.9,0,142.9,0,130
	c0-35.6,14.3-69.4,39.3-92.9C65,12.8,96.1,0,129,0c35,0,73.9,17.4,97,43.3c19.7,22.2,32,55.4,32,86.7c0,29.8-14.1,71.4-45.5,97.1
	c-19.6,16-42.7,26.4-68.9,30.8C143.5,258,143.2,258,143,258z"/>
<g>

		<linearGradient id="Path_2_" gradientUnits="userSpaceOnUse" x1="337.7834" y1="386.3531" x2="338.2061" y2="387.2607" gradientTransform="matrix(140 0 0 -176.5028 -47201 68411.0859)">
		<stop  offset="0" style="stop-color:#6603C9"/>
		<stop  offset="1" style="stop-color:#2845E0"/>
	</linearGradient>
	<path id="Path_1_" class="st2" d="M92.7,40c7.9,41.1,9.2,75.2,4,102.4S79,194.3,59,216.5c34.6-17.1,63-35.8,85.1-56.2
		s40.4-44.5,54.9-72.6c-25.2,19.9-46.6,25.9-64.5,17.9S102.8,75.8,92.7,40z"/>

		<linearGradient id="SVGID_2_" gradientUnits="userSpaceOnUse" x1="338.0714" y1="386.9677" x2="338.0714" y2="386.7632" gradientTransform="matrix(140 0 0 -176.5028 -47201 68411.0859)">
		<stop  offset="0" style="stop-color:#1E50E4"/>
		<stop  offset="1" style="stop-color:#6603C9"/>
	</linearGradient>
	<path class="st3" d="M59,218.5c-0.6,0-1.2-0.3-1.6-0.8c-0.6-0.8-0.5-1.8,0.1-2.5c19.6-21.8,32.2-46.4,37.3-73.1
		c5.1-26.8,3.8-61-4-101.7c-0.2-1.1,0.5-2.1,1.5-2.3c1-0.2,2.1,0.4,2.4,1.4c9.8,35,23.5,56.6,40.7,64.3c17,7.6,38,1.7,62.4-17.6
		c0.7-0.6,1.8-0.6,2.5,0c0.7,0.6,0.9,1.6,0.5,2.5c-14.5,28.1-33.1,52.7-55.3,73.1c-22.2,20.4-50.9,39.4-85.6,56.5
		C59.6,218.4,59.3,218.5,59,218.5z M98.7,63.8c4.2,30.7,4.2,57.2,0,79c-4.7,24.3-15.3,47-31.8,67.4c30.4-15.8,55.8-33,75.8-51.4
		c19.7-18.1,36.6-39.7,50.2-64.1c-22.6,15.9-42.5,20.2-59.2,12.7C119.7,101.2,108,86.5,98.7,63.8z"/>
</g>
<ellipse id="Oval" class="st4" cx="152.2" cy="63.9" rx="22.2" ry="21.9"/>
</svg>
