<?xml version="1.0" encoding="utf-8"?>
<svg version="1.1" xmlns="http://www.w3.org/2000/svg" xmlns:xlink="http://www.w3.org/1999/xlink" x="0px" y="0px"
	 viewBox="0 0 43 56" enable-background="new 0 0 43 56" xml:space="preserve">
<g>
	<path fill="#E9E9E0" d="M30.5,0h-29C0.7,0,0,0.7,0,1.9V55c0,0.3,0.7,1,1.5,1h40.1c0.8,0,1.5-0.7,1.5-1V13c0-0.7-0.1-0.9-0.3-1.1
		L31.1,0.3C30.9,0.1,30.7,0,30.5,0z"/>
	<polygon fill="#D9D7CA" points="31,0.2 31,12 42.8,12 	"/>
	<path fill="#CC4B4C" d="M13,33.3L13,33.3c-0.3,0-0.7-0.1-1-0.3c-1-0.8-1.2-1.6-1.1-2.2c0.2-1.6,2.2-3.3,6-5.1
		c1.5-3.3,2.9-7.4,3.8-10.8c-1-2.2-2-5-1.3-6.6c0.2-0.6,0.6-1,1.1-1.2c0.2-0.1,0.8-0.2,1-0.2c0.5,0,0.9,0.6,1.3,1
		c0.3,0.4,1,1.2-0.4,6.8c1.3,2.8,3.3,5.6,5.1,7.6c1.3-0.2,2.4-0.4,3.4-0.4c1.6,0,2.5,0.4,2.9,1.1c0.3,0.6,0.2,1.3-0.4,2.2
		c-0.6,0.8-1.3,1.2-2.2,1.2c-1.2,0-2.6-0.8-4.2-2.3c-2.8,0.6-6.1,1.7-8.8,2.8c-0.8,1.8-1.6,3.2-2.4,4.3C14.8,32.7,13.9,33.3,13,33.3
		z M15.7,28.2c-2.1,1.2-3,2.2-3.1,2.7c0,0.1,0,0.3,0.4,0.7C13.2,31.6,14.1,31.2,15.7,28.2z M29.3,23.8c0.8,0.6,1,0.9,1.5,0.9
		c0.2,0,0.9,0,1.2-0.4c0.1-0.2,0.2-0.3,0.2-0.4c-0.1-0.1-0.3-0.2-1.2-0.2C30.6,23.6,30,23.7,29.3,23.8z M21.8,17.2
		c-0.7,2.5-1.7,5.1-2.7,7.6c2.1-0.8,4.4-1.5,6.5-2C24.3,21.1,23,19.2,21.8,17.2z M21.2,8.7c-0.1,0-1.3,1.8,0.1,3.2
		C22.3,9.8,21.3,8.7,21.2,8.7z"/>
	<path fill="#CC4B4C" d="M41.5,56H1.5C0.7,56,0,55.3,0,54.5V39h43v15.5C43,55.3,42.3,56,41.5,56z"/>
	<g>
		<path fill="#FFFFFF" d="M10.9,53H9.2V42.9h2.9c0.4,0,0.9,0.1,1.3,0.2s0.8,0.3,1.1,0.6c0.3,0.3,0.6,0.6,0.8,1s0.3,0.8,0.3,1.3
			c0,0.5-0.1,1-0.3,1.4s-0.4,0.8-0.7,1S14,49,13.5,49.1s-0.9,0.2-1.4,0.2h-1.2L10.9,53L10.9,53z M10.9,44.2v4h1.5
			c0.2,0,0.4,0,0.6-0.1c0.2-0.1,0.4-0.2,0.5-0.3c0.2-0.2,0.3-0.4,0.4-0.6s0.1-0.6,0.1-1c0-0.2,0-0.4-0.1-0.6c0-0.2-0.1-0.4-0.3-0.6
			c-0.1-0.2-0.3-0.4-0.6-0.5s-0.6-0.2-1-0.2L10.9,44.2L10.9,44.2z"/>
		<path fill="#FFFFFF" d="M25.7,47.7c0,0.8-0.1,1.5-0.3,2.1s-0.4,1.1-0.7,1.5s-0.6,0.7-0.9,0.9s-0.7,0.4-1,0.5
			c-0.3,0.1-0.6,0.2-0.9,0.2c-0.3,0-0.5,0-0.6,0h-3.8V42.9h3c0.8,0,1.6,0.1,2.2,0.4s1.2,0.6,1.6,1.1s0.7,1,1,1.5
			C25.6,46.5,25.7,47.1,25.7,47.7z M20.9,51.8c1.1,0,1.9-0.4,2.4-1.1S24,49,24,47.6c0-0.4,0-0.8-0.1-1.2c-0.1-0.4-0.3-0.8-0.6-1.1
			s-0.7-0.6-1.2-0.8s-1.1-0.3-1.9-0.3h-1v7.6C19.2,51.8,20.9,51.8,20.9,51.8z"/>
		<path fill="#FFFFFF" d="M29.8,44.2v3.2H34v1.1h-4.2V53h-1.7V42.9h6.3v1.2H29.8z"/>
	</g>
</g>
</svg>
